# xmcd
#
# Track frame offsets: 
#        150
#        21969
#        36652
#        54725
#        68357
#        89850
#        101617
#        117382
#        129677
#        146657
#        166745
#        178234
#        205742
#
# Disc length: 2748 seconds
#
# Revision: 3
# Processed by: cddbd v1.5.1PL2 Copyright (c) Steve Scherf et al.
# Submitted via: ExactAudioCopy v0.95b3
#
DISCID=c30aba0d
DTITLE=Jerry Douglas and Peter Rowan - Yonder
DYEAR=1996
DGENRE=Bluegrass
TTITLE0=Wayside Tavern
TTITLE1=Cannonball Blues
TTITLE2=Lullaby Of The Leaves
TTITLE3=Tuck Away My Lonesome Blues
TTITLE4=Texas Rangers
TTITLE5=Can't Get There From Here
TTITLE6=Tribulations
TTITLE7=When You And I Were Young, Maggie
TTITLE8=Girl In The Blue Velvet Band
TTITLE9=Chicka-Li-Lee-O
TTITLE10=You Taught Me How To Lose
TTITLE11=Where Angels Weep
TTITLE12=Untitled
EXTD=
EXTT0=
EXTT1=
EXTT2=
EXTT3=
EXTT4=
EXTT5=
EXTT6=
EXTT7=
EXTT8=
EXTT9=
EXTT10=
EXTT11=
EXTT12=
PLAYORDER=
